<svg width="120" height="120" viewBox="0 0 120 120" xmlns="http://www.w3.org/2000/svg">
  <defs>
    <linearGradient id="grad" x1="0%" y1="0%" x2="100%" y2="100%">
      <stop offset="0%" stop-color="#1b4965" />
      <stop offset="100%" stop-color="#62b6cb" />
    </linearGradient>
  </defs>
  <rect width="120" height="120" rx="24" fill="url(#grad)" />
  <path d="M60 25c-8 0-15 5-17 12h-8v12h6v32c0 10 8 18 19 18s19-8 19-18V49h6V37h-8c-2-7-9-12-17-12zm0 12c4 0 7 3 7 7v39c0 3-3 6-7 6s-7-3-7-6V44c0-4 3-7 7-7z" fill="#fff"/>
</svg>
